<?xml version="1.0" encoding="UTF-8"?>
<svg id="Camada_1" xmlns="http://www.w3.org/2000/svg" version="1.1" xmlns:xlink="http://www.w3.org/1999/xlink" viewBox="0 0 11788 10610">
  <!-- Generator: Adobe Illustrator 29.1.0, SVG Export Plug-In . SVG Version: 2.1.0 Build 142)  -->
  <defs>
    <style>
      .st0 {
        fill: #4d4d4d;
      }

      .st1 {
        fill: #ccc;
      }

      .st1, .st2, .st3 {
        fill-rule: evenodd;
      }

      .st2, .st4 {
        fill: #474a4f;
      }

      .st3 {
        fill: #ff0;
      }

      .st5 {
        fill: url(#White_Black);
      }
    </style>
    <linearGradient id="White_Black" data-name="White, Black" x1="2831.49" y1="4440.91" x2="7830.64" y2="4440.91" gradientTransform="translate(2968 1389)" gradientUnits="userSpaceOnUse">
      <stop offset="0" stop-color="#fff"/>
      <stop offset="1" stop-color="#000"/>
    </linearGradient>
  </defs>
  <path class="st3" d="M3598.64,6737.53h-515.15c-34.49,0-62.86-28.37-62.86-62.86v-144.12c0-34.49,28.37-62.86,62.86-62.86h515.15c34.49,0,62.85,28.36,62.85,62.86v144.12c0,34.49-28.36,62.86-62.85,62.86h0ZM5189.31,5524.8v160.23l180.91,104.24v948.26h-103.5v-888.47l-623.97-360.28-624,360.28v888.47h-204.68c-35.25,0-63.62-28.37-63.62-62.86v-144.12c0-34.49,28.36-62.86,63.62-62.86h101.18v-96.6h-422.4c-34.49,0-62.86-28.37-62.86-62.86v-143.35c0-34.49,28.36-62.86,62.86-62.86h422.4v-96.58h-101.18c-35.25,0-63.62-28.36-63.62-63.62v-143.36c0-34.52,28.36-62.88,63.62-62.88h194.72l182.43-105.77c-18.41-10.75-30.66-30.69-30.66-53.66v-144.12c0-34.52,28.36-62.88,62.85-62.88h419.33l393.27,226.91v-71.28h153.31ZM3278.2,6371.09h-482.95l263.7-269.06h219.25c34.49,0,62.86,28.36,62.86,62.86v143.35c0,34.49-28.36,62.86-62.86,62.86h0ZM3598.64,6005.45h-445.37l262.93-269.85h182.44c34.49,0,62.85,28.36,62.85,62.88v143.36c0,35.25-28.36,63.62-62.85,63.62h0ZM4007.98,5639.02h-497.5l205.44-210.8c18.41-19.17,32.98-39.11,44.47-59.05h247.59c35.28,0,63.65,28.36,63.65,62.88v144.12c0,34.49-28.37,62.85-63.65,62.85h0ZM2868.86,6737.53h-430.82l263.7-269.83h167.12c34.49,0,62.85,28.36,62.85,62.86v144.12c0,34.49-28.36,62.86-62.85,62.86h0Z"/>
  <path class="st2" d="M3596.34,5346.08l-1257.2,1288.63c-16.85,17.64-42.92,21.47-65.15,9.98-21.47-11.51-32.96-35.28-27.6-59.05l281.34-1387.5c10.72-51.34,54.43-87.39,106.54-87.39h371.05c4.59-9.96,8.42-17.62,9.96-22.24,8.42-18.38,6.89-37.56-3.83-53.64-86.63-128.8-141.82-210.83-165.59-246.85-8.43-13.02-8.43-28.37,0-41.39,14.55-22.24,29.13-44.47,43.68-66.71,9.98-16.11,11.51-35.25,3.85-52.9-14.58-32.19-15.34-77.4,3.83-108.1l361.05-545.78c11.51-17.64,28.36-29.16,49.07-33.76,20.7-4.59,40.61,0,58.26,11.52l151.77,101.94c19.17,13.05,30.66,31.42,33.73,54.43,3.09,22.24-3.83,42.92-19.14,60.56l-436.18,489.08c-31.45,35.25-46.01,41.41-79.73,43.71-17.64,1.53-32.2,9.96-41.42,25.3l-23.76,37.55,157.16,223.08c35.25,50.58,37.55,65.92,10.72,124.18l-411.64,806.44,529.72-806.44h262.17c134.92,0,200.84,129.54,97.34,235.33h0Z"/>
  <path class="st2" d="M6674.28,5533.16l-149.97,153.27c-2.01,2.1-5.12,2.55-7.77,1.19-2.56-1.37-3.93-4.2-3.29-7.02l33.56-165.03c1.28-6.11,6.49-10.39,12.71-10.39h44.26c.55-1.18,1-2.1,1.19-2.64,1-2.19.82-4.47-.46-6.38-10.33-15.32-16.92-25.08-19.75-29.36-1.01-1.55-1.01-3.37,0-4.92,1.74-2.64,3.47-5.29,5.21-7.93,1.19-1.92,1.37-4.19.46-6.29-1.74-3.83-1.83-9.21.46-12.86l43.07-64.91c1.37-2.1,3.38-3.47,5.85-4.01,2.47-.55,4.84,0,6.95,1.37l18.11,12.12c2.29,1.55,3.66,3.74,4.02,6.47.37,2.64-.46,5.1-2.28,7.2l-52.03,58.17c-3.75,4.19-5.49,4.93-9.51,5.2-2.1.18-3.84,1.18-4.94,3.01l-2.83,4.47,18.75,26.53c4.21,6.02,4.48,7.84,1.28,14.77l-49.11,95.92,63.19-95.92h31.27c16.1,0,23.96,15.41,11.61,27.99h0Z"/>
  <polygon class="st1" points="4642.73 5527.01 4109.95 5834.39 4642.73 5607.48 5175.49 5834.39 4642.73 5527.01"/>
  <path class="st3" d="M4487.87,5966.25h124.94v124.94h-124.94v-124.94ZM4673.4,5966.25h124.94v124.94h-124.94v-124.94ZM4798.34,6151.78v124.94h-124.94v-124.94h124.94ZM4612.82,6276.72h-124.94v-124.94h124.94v124.94Z"/>
  <g>
    <g>
      <path class="st5" d="M6017.93,6077.47l-80.52,83.95v151.62h-137.92l4.24-974.82h137.92l-4.24,655.31,265.55-280.11h154.19l-248.42,267.26,262.98,332.37h-161.9l-191.88-235.57Z"/>
      <path class="st5" d="M6461.37,5712.55h135.34v599.63h-135.34v-599.63Z"/>
      <path class="st5" d="M7211.18,5930.13c0,133.63-100.22,216.72-260.41,216.72h-120.78v165.33h-138.77v-599.63h259.55c160.19,0,260.41,83.09,260.41,217.58ZM7070.69,5930.13c0-65.96-42.83-104.51-127.63-104.51h-113.07v208.16h113.07c84.8,0,127.63-38.55,127.63-103.65Z"/>
      <path class="st5" d="M7709.72,6208.53v103.65h-396.61v-492.55h387.19v103.65h-253.56v89.94h224.43v98.51h-224.43v96.8h262.98Z"/>
      <path class="st5" d="M7808.22,5819.63h232.14c168.75,0,280.11,94.23,280.11,246.71s-111.36,245.85-280.11,245.85h-232.14v-492.55ZM8036.08,6205.96c89.94,0,147.34-49.68,147.34-139.63s-57.39-140.49-147.34-140.49h-92.51v280.11h92.51Z"/>
      <path class="st5" d="M8634.85,6180.26h-83.09v131.92h-135.34v-492.55h224.43c135.34,0,221.86,67.67,221.86,181.6,0,72.81-36.83,126.78-100.22,155.9l109.65,155.05h-145.62l-91.66-131.92ZM8631.42,5924.99h-79.67v152.48h79.67c63.39,0,95.08-28.27,95.08-76.24s-31.69-76.24-95.08-76.24Z"/>
      <path class="st5" d="M9364.68,6208.53v103.65h-396.61v-492.55h387.19v103.65h-253.56v89.94h224.43v98.51h-224.43v96.8h262.98Z"/>
      <path class="st5" d="M9463.18,5819.63h135.34v492.55h-135.34v-492.55Z"/>
      <path class="st5" d="M9948.02,6180.26h-83.09v131.92h-135.34v-492.55h224.43c135.34,0,221.86,67.67,221.86,181.6,0,72.81-36.83,126.78-100.22,155.9l109.65,155.05h-145.62l-91.66-131.92ZM9944.59,5924.99h-79.67v152.48h79.67c63.39,0,95.08-28.27,95.08-76.24s-31.69-76.24-95.08-76.24Z"/>
      <path class="st5" d="M10245.26,6066.33c0-148.19,117.36-256.13,276.69-256.13s276.69,107.93,276.69,256.13-117.36,255.27-276.69,255.27-276.69-107.93-276.69-255.27ZM10661.58,6066.33c0-84.8-59.11-145.62-139.63-145.62s-140.49,60.82-140.49,145.62,59.96,144.77,140.49,144.77,139.63-60.82,139.63-144.77Z"/>
    </g>
    <g>
      <path class="st4" d="M6017.93,6077.47l-80.52,83.95v151.62h-137.92l4.24-974.82h137.92l-4.24,655.31,265.55-280.11h154.19l-248.42,267.26,262.98,332.37h-161.9l-191.88-235.57Z"/>
      <path class="st4" d="M6461.37,5712.55h135.34v599.63h-135.34v-599.63Z"/>
      <path class="st4" d="M7211.18,5930.13c0,133.63-100.22,216.72-260.41,216.72h-120.78v165.33h-138.77v-599.63h259.55c160.19,0,260.41,83.09,260.41,217.58ZM7070.69,5930.13c0-65.96-42.83-104.51-127.63-104.51h-113.07v208.16h113.07c84.8,0,127.63-38.55,127.63-103.65Z"/>
      <path class="st4" d="M7709.72,6208.53v103.65h-396.61v-492.55h387.19v103.65h-253.56v89.94h224.43v98.51h-224.43v96.8h262.98Z"/>
      <path class="st4" d="M7808.22,5819.63h232.14c168.75,0,280.11,94.23,280.11,246.71s-111.36,245.85-280.11,245.85h-232.14v-492.55ZM8036.08,6205.96c89.94,0,147.34-49.68,147.34-139.63s-57.39-140.49-147.34-140.49h-92.51v280.11h92.51Z"/>
      <path class="st4" d="M8634.85,6180.26h-83.09v131.92h-135.34v-492.55h224.43c135.34,0,221.86,67.67,221.86,181.6,0,72.81-36.83,126.78-100.22,155.9l109.65,155.05h-145.62l-91.66-131.92ZM8631.42,5924.99h-79.67v152.48h79.67c63.39,0,95.08-28.27,95.08-76.24s-31.69-76.24-95.08-76.24Z"/>
      <path class="st4" d="M9364.68,6208.53v103.65h-396.61v-492.55h387.19v103.65h-253.56v89.94h224.43v98.51h-224.43v96.8h262.98Z"/>
      <path class="st4" d="M9463.18,5819.63h135.34v492.55h-135.34v-492.55Z"/>
      <path class="st4" d="M9948.02,6180.26h-83.09v131.92h-135.34v-492.55h224.43c135.34,0,221.86,67.67,221.86,181.6,0,72.81-36.83,126.78-100.22,155.9l109.65,155.05h-145.62l-91.66-131.92ZM9944.59,5924.99h-79.67v152.48h79.67c63.39,0,95.08-28.27,95.08-76.24s-31.69-76.24-95.08-76.24Z"/>
      <path class="st4" d="M10245.26,6066.33c0-148.19,117.36-256.13,276.69-256.13s276.69,107.93,276.69,256.13-117.36,255.27-276.69,255.27-276.69-107.93-276.69-255.27ZM10661.58,6066.33c0-84.8-59.11-145.62-139.63-145.62s-140.49,60.82-140.49,145.62,59.96,144.77,140.49,144.77,139.63-60.82,139.63-144.77Z"/>
    </g>
  </g>
  <g>
    <path class="st0" d="M5783.38,6704.04l18.2-40.37c19.52,14.23,48.64,24.16,76.44,24.16,31.77,0,44.67-10.59,44.67-24.82,0-43.35-134.68-13.57-134.68-99.6,0-39.38,31.77-72.14,97.62-72.14,29.12,0,58.9,6.95,80.41,20.52l-16.54,40.7c-21.51-12.24-43.68-18.2-64.19-18.2-31.77,0-44.01,11.91-44.01,26.47,0,42.69,134.68,13.24,134.68,98.28,0,38.72-32.1,71.81-98.28,71.81-36.73,0-73.79-10.92-94.31-26.8Z"/>
    <path class="st0" d="M6010.7,6624.95v-129.71h53.61v127.73c0,44.01,19.19,62.21,51.62,62.21s51.62-18.2,51.62-62.21v-127.73h52.94v129.71c0,68.17-39.05,105.89-104.9,105.89s-104.9-37.72-104.9-105.89Z"/>
    <path class="st0" d="M6421.01,6677.24h-107.54l-20.52,49.64h-54.93l103.24-231.63h52.94l103.57,231.63h-56.25l-20.52-49.64ZM6404.13,6636.54l-36.73-88.68-36.73,88.68h73.46Z"/>
    <path class="st0" d="M6601.01,6611.06c0-68.83,53.61-119.79,126.74-119.79s126.74,50.63,126.74,119.79-53.94,119.79-126.74,119.79-126.74-50.96-126.74-119.79ZM6800.21,6611.06c0-44.01-31.1-74.12-72.47-74.12s-72.47,30.11-72.47,74.12,31.11,74.12,72.47,74.12,72.47-30.11,72.47-74.12Z"/>
    <path class="st0" d="M7107.28,6663.67c0,40.04-31.77,63.2-92.65,63.2h-119.79v-231.63h113.17c57.91,0,87.69,24.16,87.69,60.22,0,23.16-11.91,41.03-30.77,50.96,25.81,8.27,42.36,28.13,42.36,57.25ZM6948.12,6535.61v54.6h53.28c26.14,0,40.37-9.27,40.37-27.47s-14.23-27.13-40.37-27.13h-53.28ZM7053.34,6658.04c0-19.52-14.89-28.79-42.69-28.79h-62.54v57.25h62.54c27.8,0,42.69-8.6,42.69-28.46Z"/>
    <path class="st0" d="M7295.56,6726.87l-44.67-64.53h-49.3v64.53h-53.61v-231.63h100.26c61.88,0,100.59,32.1,100.59,84.05,0,34.74-17.54,60.22-47.65,73.13l51.95,74.45h-57.58ZM7245.26,6538.92h-43.68v80.74h43.68c32.76,0,49.3-15.22,49.3-40.37s-16.54-40.37-49.3-40.37Z"/>
    <path class="st0" d="M7543.72,6677.24h-107.54l-20.52,49.64h-54.93l103.24-231.63h52.94l103.57,231.63h-56.25l-20.52-49.64ZM7526.85,6636.54l-36.73-88.68-36.73,88.68h73.46Z"/>
    <path class="st0" d="M7950.72,6495.24v231.63h-44.01l-115.49-140.63v140.63h-52.94v-231.63h44.34l115.15,140.63v-140.63h52.94Z"/>
    <path class="st0" d="M7991.09,6611.06c0-68.83,53.61-119.79,126.74-119.79s126.74,50.63,126.74,119.79-53.94,119.79-126.74,119.79-126.74-50.96-126.74-119.79ZM8190.29,6611.06c0-44.01-31.1-74.12-72.47-74.12s-72.47,30.11-72.47,74.12,31.11,74.12,72.47,74.12,72.47-30.11,72.47-74.12Z"/>
    <path class="st0" d="M8526.14,6726.87l-44.67-64.53h-49.3v64.53h-53.61v-231.63h100.26c61.88,0,100.59,32.1,100.59,84.05,0,34.74-17.54,60.22-47.65,73.13l51.95,74.45h-57.58ZM8475.84,6538.92h-43.68v80.74h43.68c32.76,0,49.3-15.22,49.3-40.37s-16.54-40.37-49.3-40.37Z"/>
    <path class="st0" d="M8621.76,6495.24h53.61v231.63h-53.61v-231.63Z"/>
    <path class="st0" d="M8778.27,6538.92h-74.12v-43.68h201.85v43.68h-74.12v187.95h-53.61v-187.95Z"/>
    <path class="st0" d="M9145.57,6726.87l-.33-138.98-68.17,114.49h-24.16l-67.83-111.51v136h-50.3v-231.63h44.34l86.7,143.94,85.37-143.94h44.01l.66,231.63h-50.3Z"/>
    <path class="st0" d="M9236.22,6611.06c0-68.83,53.61-119.79,126.74-119.79s126.74,50.63,126.74,119.79-53.94,119.79-126.74,119.79-126.74-50.96-126.74-119.79ZM9435.43,6611.06c0-44.01-31.1-74.12-72.47-74.12s-72.47,30.11-72.47,74.12,31.11,74.12,72.47,74.12,72.47-30.11,72.47-74.12Z"/>
    <path class="st0" d="M9609.14,6611.06c0-69.82,53.61-119.79,125.74-119.79,40.04,0,73.46,14.56,95.3,41.03l-34.41,31.77c-15.55-17.87-35.08-27.13-58.24-27.13-43.35,0-74.12,30.44-74.12,74.12s30.77,74.12,74.12,74.12c23.16,0,42.69-9.27,58.24-27.46l34.41,31.77c-21.84,26.8-55.26,41.36-95.63,41.36-71.81,0-125.41-49.97-125.41-119.79Z"/>
    <path class="st0" d="M10045.59,6683.85v43.02h-179.35v-231.63h175.05v43.02h-121.77v50.3h107.54v41.69h-107.54v53.61h126.07Z"/>
    <path class="st0" d="M10235.85,6726.87l-44.67-64.53h-49.3v64.53h-53.61v-231.63h100.26c61.88,0,100.59,32.1,100.59,84.05,0,34.74-17.54,60.22-47.65,73.13l51.95,74.45h-57.58ZM10185.55,6538.92h-43.68v80.74h43.68c32.76,0,49.3-15.22,49.3-40.37s-16.54-40.37-49.3-40.37Z"/>
    <path class="st0" d="M10376.14,6538.92h-74.12v-43.68h201.85v43.68h-74.12v187.95h-53.61v-187.95Z"/>
    <path class="st0" d="M10514.79,6611.06c0-68.83,53.61-119.79,126.74-119.79s126.74,50.63,126.74,119.79-53.94,119.79-126.74,119.79-126.74-50.96-126.74-119.79ZM10713.99,6611.06c0-44.01-31.1-74.12-72.47-74.12s-72.47,30.11-72.47,74.12,31.11,74.12,72.47,74.12,72.47-30.11,72.47-74.12Z"/>
  </g>
</svg>